<svg width="46" height="65" viewBox="0 0 46 65" fill="none" xmlns="http://www.w3.org/2000/svg">
<path d="M0 22.7519C0 16.7181 2.3773 10.9315 6.60893 6.66506C10.8405 2.39857 16.5799 0.00167847 22.5643 0.00167847C28.5487 0.00167847 34.288 2.39857 38.5196 6.66506C42.7513 10.9315 45.1286 16.7181 45.1286 22.7519C45.1286 39.8132 28.9465 65.0006 22.5653 65.0006C16.1841 65.0006 0 39.8153 0 22.7519Z" fill="white"/>
<path d="M38.0929 46.8595L0.154297 20.0739C0.802304 14.5706 3.42282 9.49574 7.5227 5.80434C8.52386 4.90068 9.60241 4.08817 10.7457 3.37634C11.899 2.65858 13.114 2.04707 14.3762 1.54922C16.9846 0.521507 19.761 -0.00398597 22.5615 2.27633e-05C28.5429 0.00813805 34.277 2.40801 38.5058 6.67317C42.7346 10.9383 45.1128 16.7205 45.1187 22.7512C45.1049 24.698 44.9245 26.64 44.5794 28.5555C44.2111 30.6283 43.7156 32.676 43.0956 34.6868C42.4875 36.6959 41.7314 38.7744 40.8659 40.8733C40.0388 42.8701 39.1043 44.8873 38.0888 46.8656L38.0929 46.8595Z" fill="url(#paint0_linear_305_700)"/>
<path d="M37.0019 16.5722L23.599 11.9247C22.7618 11.6202 22.9381 11.6181 22.1091 11.9247L8.62503 16.5354C7.79799 16.8379 7.80205 17.3284 8.6372 17.637L11.842 18.7325C11.2721 19.3206 10.8391 20.0291 10.5744 20.8068C10.3097 21.5845 10.2199 22.4118 10.3116 23.2288C10.047 23.3318 9.81781 23.51 9.65172 23.7418C9.48564 23.9735 9.38981 24.2489 9.37586 24.5345C9.36191 24.8201 9.43045 25.1036 9.57314 25.3507C9.71584 25.5978 9.92657 25.7978 10.1798 25.9266C9.85428 28.1372 8.88408 30.2002 7.39258 31.8535C8.02782 32.402 8.7642 32.8187 9.55951 33.0797C12.2292 31.923 11.9048 28.8553 11.6981 25.7917C11.891 25.6499 12.0465 25.4626 12.151 25.2462C12.2556 25.0298 12.3059 24.7909 12.2977 24.5503C12.2895 24.3098 12.223 24.0749 12.104 23.8663C11.985 23.6576 11.8171 23.4816 11.615 23.3534C11.5604 22.5982 11.6782 21.8404 11.9593 21.1382C12.2404 20.436 12.6773 19.8081 13.2366 19.3027C13.2461 19.2782 13.2765 19.2557 13.3278 19.2353L22.5408 15.4808C22.6222 15.4479 22.7091 15.4315 22.7967 15.4325C22.8844 15.4335 22.9709 15.4519 23.0515 15.4866C23.1321 15.5213 23.2051 15.5717 23.2663 15.6349C23.3276 15.6981 23.3758 15.7729 23.4084 15.8549L23.4206 15.8835C23.4535 15.9654 23.47 16.0532 23.4692 16.1416C23.4683 16.23 23.4502 16.3174 23.4157 16.3987C23.3812 16.48 23.3311 16.5536 23.2683 16.6153C23.2055 16.677 23.1312 16.7256 23.0496 16.7582L15.2657 19.8974L22.2307 22.2743C23.0679 22.5789 22.8915 22.5809 23.7206 22.2743L37.0181 17.6677C37.8452 17.3652 37.8411 16.8706 37.006 16.5702L37.0019 16.5722ZM22.2043 24.0647L13.7677 21.1809V23.3494C13.9887 23.5586 14.1638 23.8122 14.2818 24.0938C14.3998 24.3754 14.4581 24.6787 14.4528 24.9844C14.4571 25.5372 14.2643 26.0731 13.9096 26.4947C13.9467 26.659 14.0182 26.8135 14.1192 26.9478C14.2202 27.082 14.3485 27.193 14.4954 27.2734C17.1606 28.6371 20.1154 29.3248 23.1038 29.2767C26.0922 29.2287 29.0238 28.4463 31.6444 26.9975C31.838 26.8639 32.002 26.6911 32.1258 26.4902C32.2497 26.2893 32.3308 26.0647 32.364 25.8305V21.0542L23.7003 24.0565C22.8652 24.3651 23.0375 24.3631 22.2043 24.0647Z" fill="#7F6ECC"/>
<defs>
<linearGradient id="paint0_linear_305_700" x1="-6.00582" y1="-1.12478" x2="44.9921" y2="44.7574" gradientUnits="userSpaceOnUse">
<stop stop-color="white" stop-opacity="0.4"/>
<stop offset="0.874" stop-color="#6F77F4" stop-opacity="0"/>
<stop offset="1" stop-color="#D59BF6" stop-opacity="0"/>
</linearGradient>
</defs>
</svg>
