<svg width="243" height="45" viewBox="0 0 243 45" fill="none" xmlns="http://www.w3.org/2000/svg">
<path d="M0 15.6401C0 11.4924 1.65526 7.51456 4.60163 4.58167C7.548 1.64878 11.5441 0.00109863 15.7109 0.00109863C19.8777 0.00109863 23.8739 1.64878 26.8203 4.58167C29.7666 7.51456 31.4219 11.4924 31.4219 15.6401C31.4219 27.3685 20.1547 44.683 15.7117 44.683C11.2686 44.683 0 27.37 0 15.6401Z" fill="white"/>
<path d="M26.5231 32.2124L0.107422 13.7993C0.558613 10.0162 2.38321 6.52761 5.23786 3.99005C5.93494 3.36885 6.6859 2.81031 7.48197 2.32098C8.28496 1.82758 9.13096 1.40721 10.0098 1.06497C11.8259 0.358497 13.7591 -0.00274005 15.709 1.56481e-05C19.8737 0.0055943 23.8662 1.65533 26.8106 4.5873C29.755 7.51928 31.4109 11.4941 31.415 15.6398C31.4054 16.978 31.2798 18.313 31.0395 19.6298C30.7831 21.0546 30.4381 22.4623 30.0064 23.8446C29.583 25.2256 29.0565 26.6545 28.4539 28.0973C27.878 29.47 27.2274 30.8566 26.5203 32.2166L26.5231 32.2124Z" fill="url(#paint0_linear_435_696)"/>
<path d="M25.7632 11.3922L16.4311 8.19732C15.8482 7.98799 15.971 7.98658 15.3937 8.19732L6.0051 11.3669C5.42925 11.5748 5.43207 11.912 6.01357 12.1241L8.24498 12.8772C7.84819 13.2814 7.54671 13.7685 7.3624 14.3031C7.1781 14.8377 7.11558 15.4064 7.17938 15.968C6.99519 16.0388 6.8356 16.1613 6.71996 16.3207C6.60432 16.48 6.53759 16.6693 6.52788 16.8656C6.51817 17.0619 6.56589 17.2568 6.66525 17.4267C6.7646 17.5965 6.91133 17.734 7.08764 17.8225C6.86099 19.3422 6.18547 20.7604 5.14697 21.8968C5.58927 22.2739 6.102 22.5604 6.65575 22.7398C8.51456 21.9446 8.28874 19.8358 8.14478 17.7298C8.27909 17.6323 8.38737 17.5036 8.46016 17.3548C8.53294 17.2061 8.56801 17.0419 8.56231 16.8765C8.5566 16.7111 8.51028 16.5497 8.42741 16.4063C8.34454 16.2628 8.22763 16.1418 8.08691 16.0537C8.04891 15.5346 8.13092 15.0136 8.32665 14.5309C8.52238 14.0482 8.82662 13.6166 9.21603 13.2691C9.22261 13.2523 9.24378 13.2368 9.27954 13.2228L15.6943 10.6419C15.7509 10.6193 15.8115 10.608 15.8725 10.6086C15.9335 10.6093 15.9938 10.622 16.0499 10.6458C16.106 10.6697 16.1568 10.7044 16.1995 10.7478C16.2421 10.7913 16.2757 10.8426 16.2984 10.899L16.3069 10.9187C16.3298 10.975 16.3413 11.0353 16.3407 11.0961C16.3401 11.1569 16.3275 11.217 16.3035 11.2729C16.2795 11.3287 16.2446 11.3794 16.2008 11.4218C16.1571 11.4642 16.1053 11.4976 16.0486 11.52L10.6288 13.678L15.4784 15.3119C16.0613 15.5212 15.9385 15.5227 16.5158 15.3119L25.7745 12.1452C26.3504 11.9373 26.3475 11.5973 25.766 11.3907L25.7632 11.3922ZM15.46 16.5426L9.58581 14.5603V16.0509C9.7397 16.1948 9.86164 16.3691 9.9438 16.5626C10.026 16.7562 10.0665 16.9648 10.0629 17.1749C10.0658 17.5549 9.93157 17.9233 9.68461 18.2131C9.71046 18.3261 9.76022 18.4322 9.83055 18.5245C9.90089 18.6168 9.99019 18.6932 10.0925 18.7484C11.9482 19.6859 14.0056 20.1586 16.0863 20.1255C18.167 20.0925 20.2082 19.5547 22.0329 18.5587C22.1677 18.4669 22.2819 18.3481 22.3681 18.21C22.4544 18.0719 22.5109 17.9175 22.534 17.7565V14.4732L16.5016 16.537C15.9202 16.7492 16.0401 16.7478 15.46 16.5426Z" fill="#7F6ECC"/>
<path d="M49.0943 30.0079C50.1011 30.0899 51.1056 29.825 51.9396 29.2577C52.2263 29.0345 52.4572 28.7482 52.6141 28.4214C52.7711 28.0945 52.8499 27.7359 52.8443 27.3737C52.8568 27.0641 52.8 26.7556 52.6779 26.4705C52.5559 26.1855 52.3717 25.9311 52.1386 25.7257C51.5064 25.2317 50.7777 24.8743 49.999 24.6762L47.855 24.006C47.0641 23.7616 46.292 23.4606 45.5446 23.1055C44.8974 22.8036 44.2994 22.4067 43.7705 21.9281C43.2842 21.4787 42.8969 20.9339 42.6329 20.3279C42.3514 19.6355 42.2164 18.8927 42.2363 18.146C42.2063 17.3215 42.3762 16.5018 42.7317 15.7565C43.0871 15.0111 43.6177 14.3619 44.2786 13.8638C45.9078 12.7292 47.8725 12.1717 49.8578 12.2804C50.7273 12.2746 51.5956 12.347 52.452 12.4968C53.1595 12.6161 53.8506 12.8175 54.5112 13.0967C55.0287 13.308 55.4918 13.6326 55.8661 14.0464C56.1785 14.3943 56.3513 14.8443 56.3516 15.3109C56.3624 15.7168 56.2519 16.1168 56.0341 16.4601C55.8307 16.7735 55.5627 17.0402 55.2479 17.2427C54.5934 16.809 53.8761 16.4773 53.121 16.2592C52.183 15.9716 51.2062 15.8294 50.2248 15.8377C49.3013 15.7784 48.3808 15.993 47.5798 16.4545C47.2955 16.6337 47.0626 16.8832 46.9041 17.1787C46.7455 17.4742 46.6666 17.8055 46.6751 18.1404C46.6625 18.3948 46.7122 18.6484 46.8199 18.8794C46.9276 19.1105 47.0901 19.312 47.2933 19.4667C47.8948 19.8673 48.5559 20.1712 49.2523 20.3672L51.1605 20.9671C52.8291 21.4008 54.3747 22.2119 55.677 23.3373C56.2196 23.8625 56.6437 24.4967 56.9208 25.1978C57.198 25.8989 57.322 26.6507 57.2846 27.4032C57.2953 28.2655 57.1125 29.1194 56.7497 29.9025C56.3897 30.6628 55.8585 31.3301 55.1971 31.8526C54.4408 32.4343 53.5779 32.8638 52.6566 33.117C51.5292 33.4308 50.3622 33.5813 49.1916 33.5638C48.244 33.5707 47.2982 33.4812 46.3688 33.2969C45.6005 33.1486 44.8531 32.908 44.1431 32.5803C43.5861 32.332 43.0886 31.9685 42.6837 31.514C42.353 31.1415 42.169 30.6624 42.1657 30.1653C42.1533 29.6873 42.3124 29.2206 42.6145 28.8488C42.8962 28.4976 43.2575 28.2178 43.6688 28.0326C44.3368 28.5904 45.084 29.0468 45.8862 29.3869C46.9011 29.8178 47.9968 30.0281 49.0999 30.0037L49.0943 30.0079ZM64.9315 28.1407C64.9044 28.4303 64.9499 28.7221 65.064 28.9898C65.178 29.2576 65.3571 29.493 65.585 29.6749C66.1296 30.0159 66.7676 30.179 67.4099 30.1414C67.7986 30.1402 68.1859 30.0954 68.5645 30.0079C68.9253 29.9276 69.2781 29.8153 69.6188 29.6721C69.8044 29.862 69.9562 30.082 70.0676 30.3226C70.1948 30.5997 70.2575 30.9018 70.2511 31.2063C70.2505 31.5346 70.1674 31.8574 70.0094 32.1455C69.8514 32.4336 69.6234 32.6778 69.3464 32.8557C68.4619 33.36 67.4451 33.5867 66.429 33.5062C64.9452 33.5895 63.4765 33.1727 62.2597 32.3232C61.7177 31.8333 61.2984 31.2239 61.0354 30.5437C60.7724 29.8635 60.6731 29.1315 60.7453 28.4063V13.1037C60.9241 13.0588 61.1861 13.0035 61.5315 12.9379C61.9037 12.8683 62.2818 12.8344 62.6606 12.8368C63.2676 12.789 63.8736 12.9411 64.3853 13.2695C64.5888 13.4663 64.7444 13.7069 64.84 13.9729C64.9357 14.2388 64.9689 14.523 64.9372 14.8037V17.5714H69.8587C69.9891 17.7918 70.0906 18.0279 70.1607 18.2739C70.2521 18.5764 70.2972 18.8909 70.2948 19.2068C70.3146 19.4335 70.2892 19.6619 70.2202 19.8789C70.1512 20.0958 70.0398 20.2971 69.8926 20.4712C69.7507 20.6069 69.5825 20.7124 69.3984 20.7812C69.2142 20.85 69.0178 20.8808 68.8213 20.8716H64.9329L64.9315 28.1407ZM88.2365 29.9405C88.2514 30.3837 88.1594 30.824 87.9683 31.2246C87.7405 31.6174 87.4032 31.9361 86.9973 32.142C86.2298 32.5938 85.4007 32.9326 84.5358 33.1479C83.4259 33.4288 82.2837 33.5634 81.1386 33.5483C80.0788 33.5601 79.0223 33.4311 77.9968 33.1648C77.1202 32.9394 76.2996 32.5367 75.5861 31.9818C74.911 31.4419 74.3813 30.7433 74.0449 29.9489C73.6673 29.0177 73.4853 28.0193 73.51 27.0154V17.3213C73.7658 17.2363 74.029 17.1752 74.2961 17.1387C74.6781 17.0802 75.0642 17.052 75.4506 17.0544C76.0611 17.0112 76.6699 17.1585 77.1923 17.4759C77.4021 17.671 77.5625 17.9127 77.6606 18.1812C77.7588 18.4498 77.7917 18.7377 77.7569 19.0213V26.9522C77.7137 27.4048 77.7714 27.8613 77.9258 28.2892C78.0803 28.7171 78.3276 29.1059 78.6503 29.4277C79.3758 29.9703 80.2725 30.2365 81.1781 30.1779C81.7701 30.1899 82.3611 30.1228 82.9353 29.9784C83.3166 29.8856 83.6829 29.7399 84.0235 29.5457V17.3101C84.2793 17.2251 84.5424 17.164 84.8096 17.1275C85.1831 17.0693 85.5607 17.0411 85.9387 17.0432C86.5549 16.9957 87.1704 17.1432 87.6973 17.4646C87.9029 17.6624 88.0597 17.9048 88.1555 18.1729C88.2512 18.441 88.2833 18.7275 88.2492 19.0101L88.2365 29.9405ZM107.149 29.9742C107.169 30.409 107.051 30.839 106.812 31.2035C106.534 31.5636 106.191 31.869 105.801 32.1041C105.108 32.5208 104.366 32.8511 103.591 33.0875C102.561 33.4032 101.487 33.554 100.41 33.5343C98.1033 33.6565 95.8328 32.9259 94.0345 31.4831C93.203 30.6718 92.5608 29.6885 92.1535 28.6028C91.7462 27.517 91.5837 26.3554 91.6775 25.2002C91.6468 23.9103 91.8628 22.6263 92.314 21.4167C92.6924 20.431 93.2808 19.5385 94.0387 18.8007C94.7692 18.1085 95.6438 17.5847 96.6004 17.2665C97.6258 16.9262 98.7008 16.7572 99.7817 16.7664C100.356 16.7631 100.929 16.8244 101.489 16.949C101.981 17.0564 102.463 17.2059 102.929 17.3958V11.363C103.185 11.278 103.448 11.2169 103.715 11.1804C104.089 11.1222 104.466 11.094 104.844 11.0961C105.462 11.0462 106.08 11.1986 106.603 11.5302C106.806 11.727 106.962 11.9676 107.058 12.2336C107.153 12.4995 107.187 12.7837 107.155 13.0644L107.149 29.9742ZM102.931 20.8126C102.562 20.5982 102.169 20.4302 101.759 20.3124C101.292 20.1763 100.807 20.1091 100.319 20.1129C99.7457 20.0944 99.1741 20.1908 98.6385 20.3964C98.1029 20.6021 97.6143 20.9127 97.2017 21.31C96.743 21.8507 96.3975 22.4773 96.1854 23.1528C95.9733 23.8283 95.899 24.5392 95.9667 25.2438C95.9072 25.9159 95.9816 26.5931 96.1855 27.2365C96.3894 27.88 96.7189 28.4771 97.1551 28.9935C97.585 29.3983 98.093 29.7119 98.6484 29.9153C99.2038 30.1186 99.7948 30.2075 100.386 30.1765C100.89 30.1873 101.393 30.12 101.876 29.977C102.245 29.8634 102.599 29.7068 102.931 29.5106V20.8126ZM114.884 27.0463C115.114 28.0653 115.74 28.9522 116.625 29.5134C117.582 30.051 118.669 30.316 119.767 30.2791C120.65 30.2864 121.527 30.1438 122.361 29.8576C123.034 29.6353 123.68 29.3389 124.286 28.9739C124.599 29.1522 124.863 29.404 125.056 29.7073C125.254 30.0057 125.359 30.3556 125.358 30.7132C125.361 31.1494 125.201 31.5713 124.909 31.8961C124.563 32.273 124.143 32.574 123.674 32.7798C123.08 33.0439 122.456 33.2327 121.815 33.3418C121.052 33.4789 120.277 33.5452 119.502 33.5399C118.284 33.555 117.072 33.3767 115.911 33.0117C114.876 32.6838 113.927 32.1315 113.132 31.3946C112.341 30.6421 111.724 29.7274 111.324 28.714C110.866 27.5233 110.644 26.2557 110.671 24.981C110.644 23.7508 110.86 22.5273 111.307 21.3802C111.694 20.4122 112.281 19.5365 113.032 18.8106C113.753 18.1235 114.616 17.6001 115.56 17.2764C116.54 16.9397 117.57 16.7706 118.607 16.7762C119.634 16.7645 120.656 16.9392 121.62 17.2918C122.49 17.6084 123.287 18.0957 123.965 18.7249C124.619 19.3474 125.138 20.0979 125.487 20.9292C125.861 21.8096 126.048 22.7569 126.039 23.7124C126.06 23.9672 126.027 24.2234 125.943 24.4652C125.86 24.7069 125.727 24.9289 125.554 25.1173C125.176 25.4531 124.702 25.6628 124.199 25.7172L114.884 27.0463ZM118.607 19.9458C118.099 19.9322 117.594 20.0212 117.122 20.2074C116.65 20.3935 116.221 20.673 115.86 21.029C115.077 21.8669 114.636 22.9665 114.625 24.1114L122.059 23.0113C121.979 22.2083 121.638 21.4532 121.088 20.8604C120.765 20.5395 120.376 20.2918 119.948 20.134C119.519 19.9762 119.062 19.912 118.607 19.9458ZM139.836 22.8793C139.869 22.4901 139.813 22.0983 139.671 21.7342C139.529 21.3701 139.305 21.0432 139.016 20.7789C138.375 20.3036 137.588 20.0665 136.79 20.1087C136.183 20.1028 135.579 20.1812 134.995 20.3419C134.495 20.4773 134.017 20.6791 133.572 20.9419V33.0117C133.371 33.0566 133.103 33.1119 132.769 33.1774C132.394 33.2481 132.013 33.282 131.631 33.2786C131.019 33.3245 130.408 33.1728 129.89 32.8459C129.683 32.6521 129.525 32.4133 129.427 32.1483C129.329 31.8834 129.294 31.5994 129.325 31.3187V20.6201C129.305 20.1632 129.423 19.7108 129.662 19.3206C129.942 18.9342 130.294 18.6058 130.7 18.354C131.493 17.8423 132.365 17.4627 133.281 17.23C134.438 16.92 135.633 16.7697 136.831 16.7832C138.73 16.6663 140.612 17.2013 142.163 18.2992C142.807 18.8428 143.314 19.5291 143.643 20.303C143.972 21.077 144.115 21.917 144.059 22.7556V33.0117C143.88 33.0566 143.618 33.1119 143.272 33.1774C142.9 33.2471 142.522 33.281 142.143 33.2786C141.525 33.3289 140.908 33.177 140.385 32.8459C140.18 32.6493 140.024 32.4086 139.927 32.1424C139.831 31.8762 139.797 31.5915 139.829 31.3103L139.836 22.8793ZM152.559 28.145C152.532 28.4345 152.578 28.7263 152.692 28.994C152.806 29.2618 152.985 29.4972 153.213 29.6792C153.757 30.0202 154.396 30.1833 155.038 30.1456C155.426 30.1444 155.814 30.0997 156.192 30.0121C156.553 29.9319 156.906 29.8195 157.247 29.6763C157.432 29.8662 157.584 30.0862 157.695 30.3268C157.823 30.6039 157.885 30.906 157.879 31.2105C157.878 31.5388 157.795 31.8616 157.637 32.1497C157.479 32.4378 157.251 32.682 156.974 32.8599C156.09 33.3642 155.073 33.5909 154.057 33.5104C152.573 33.5937 151.104 33.177 149.888 32.3275C149.346 31.8367 148.928 31.2266 148.666 30.5459C148.404 29.8652 148.305 29.1329 148.379 28.4077V13.1037C148.558 13.0588 148.82 13.0035 149.165 12.9379C149.537 12.8683 149.915 12.8344 150.294 12.8368C150.901 12.789 151.507 12.9411 152.019 13.2695C152.222 13.4663 152.378 13.7069 152.474 13.9729C152.569 14.2388 152.602 14.523 152.571 14.8037V17.5714H157.492C157.623 17.7918 157.724 18.0279 157.794 18.2739C157.886 18.5764 157.931 18.8909 157.928 19.2068C157.948 19.4335 157.923 19.6619 157.854 19.8788C157.785 20.0958 157.673 20.2971 157.526 20.4712C157.384 20.6069 157.216 20.7124 157.032 20.7812C156.848 20.85 156.651 20.8808 156.455 20.8716H152.564L152.559 28.145ZM178.944 30.2439C178.974 30.699 178.85 31.1508 178.593 31.528C178.281 31.8874 177.896 32.177 177.463 32.378C177.12 32.5796 176.755 32.7418 176.375 32.8613C175.904 33.015 175.423 33.1375 174.936 33.228C174.412 33.3282 173.871 33.4116 173.313 33.4781C172.757 33.545 172.198 33.5788 171.639 33.5793C170.148 33.5927 168.664 33.3848 167.235 32.9625C165.941 32.58 164.744 31.9261 163.725 31.0448C162.702 30.1365 161.906 29.0044 161.398 27.7375C160.806 26.2189 160.521 24.5989 160.561 22.9706C160.53 21.3797 160.82 19.7988 161.415 18.3216C161.935 17.0452 162.736 15.9005 163.757 14.9709C164.765 14.0741 165.943 13.3884 167.222 12.9548C168.591 12.4905 170.029 12.2592 171.475 12.2706C172.391 12.2622 173.305 12.346 174.205 12.5207C174.932 12.6604 175.64 12.8853 176.315 13.1908C176.837 13.4189 177.301 13.763 177.67 14.1968C177.963 14.5358 178.129 14.966 178.138 15.4134C178.146 15.8317 178.017 16.2411 177.77 16.5795C177.548 16.8907 177.263 17.1516 176.933 17.3452C176.267 16.9249 175.56 16.5733 174.823 16.2957C173.846 15.9484 172.813 15.7845 171.776 15.8124C170.849 15.8023 169.929 15.9663 169.063 16.2957C168.263 16.6005 167.538 17.0718 166.936 17.6782C166.32 18.3172 165.847 19.0784 165.547 19.912C165.198 20.8849 165.028 21.9124 165.045 22.9453C165.021 24.0223 165.191 25.0948 165.547 26.112C165.845 26.9414 166.318 27.6971 166.936 28.3276C167.529 28.9172 168.251 29.362 169.046 29.6272C169.904 29.9135 170.803 30.0559 171.708 30.0487C172.303 30.0539 172.898 29.9983 173.482 29.8829C173.91 29.8066 174.326 29.6718 174.717 29.4825V24.8462H170.433C170.303 24.6258 170.201 24.3897 170.131 24.1437C170.038 23.83 169.993 23.5042 169.997 23.1771C169.962 22.7055 170.114 22.239 170.421 21.8775C170.561 21.7336 170.731 21.6208 170.919 21.5462C171.106 21.4717 171.307 21.4371 171.509 21.4448H177.135C177.375 21.4318 177.616 21.4663 177.843 21.5464C178.07 21.6264 178.279 21.7504 178.457 21.9113C178.624 22.0826 178.753 22.2866 178.837 22.5103C178.921 22.734 178.957 22.9725 178.943 23.2108L178.944 30.2439ZM189.493 30.3451C190.089 30.3506 190.684 30.2894 191.267 30.1625C191.682 30.0891 192.08 29.9375 192.438 29.7157V26.0151L189.192 26.3157C188.476 26.3518 187.777 26.5512 187.15 26.8988C186.916 27.0511 186.728 27.2627 186.604 27.5116C186.48 27.7605 186.425 28.0378 186.444 28.315C186.431 28.6047 186.49 28.8933 186.615 29.155C186.741 29.4168 186.929 29.6436 187.164 29.8154C187.868 30.2257 188.682 30.4093 189.494 30.3409L189.493 30.3451ZM189.359 16.779C191.211 16.6865 193.045 17.1782 194.599 18.184C195.263 18.6864 195.789 19.346 196.131 20.1027C196.473 20.8595 196.619 21.6894 196.557 22.5168V30.2172C196.581 30.6734 196.438 31.1228 196.155 31.4817C195.864 31.8107 195.523 32.0918 195.144 32.3148C194.404 32.7372 193.601 33.0411 192.766 33.2154C191.688 33.4508 190.587 33.5634 189.484 33.5512C187.637 33.6502 185.802 33.2034 184.21 32.267C183.58 31.8483 183.07 31.2727 182.733 30.5974C182.395 29.9221 182.241 29.1706 182.285 28.4175C182.245 27.7779 182.352 27.1376 182.598 26.5456C182.845 25.9537 183.224 25.4257 183.707 25.0021C184.91 24.1184 186.35 23.6126 187.843 23.5494L192.43 23.083V22.4746C192.455 22.1102 192.383 21.7455 192.222 21.4176C192.06 21.0897 191.814 20.8102 191.508 20.6075C190.719 20.1639 189.819 19.9557 188.914 20.0076C188.057 20.0062 187.204 20.1124 186.374 20.3237C185.613 20.5113 184.872 20.7734 184.163 21.1062C183.906 20.9156 183.695 20.671 183.544 20.3897C183.376 20.089 183.29 19.7502 183.293 19.4063C183.275 19.0201 183.386 18.6391 183.61 18.3231C183.887 17.9965 184.237 17.7395 184.632 17.5728C185.343 17.2887 186.085 17.0874 186.842 16.9729C187.675 16.8376 188.518 16.7694 189.362 16.7692L189.359 16.779ZM204.957 28.145C204.93 28.4345 204.976 28.7263 205.09 28.994C205.204 29.2618 205.383 29.4972 205.611 29.6792C206.156 30.0202 206.794 30.1833 207.436 30.1456C207.825 30.1444 208.212 30.0996 208.59 30.0121C208.951 29.9319 209.304 29.8195 209.645 29.6763C209.83 29.8662 209.982 30.0862 210.094 30.3268C210.221 30.6039 210.283 30.906 210.277 31.2105C210.276 31.5388 210.193 31.8616 210.035 32.1497C209.877 32.4378 209.649 32.682 209.372 32.8599C208.488 33.3642 207.471 33.5909 206.455 33.5104C204.971 33.5937 203.502 33.177 202.286 32.3275C201.742 31.8385 201.321 31.2295 201.056 30.5493C200.791 29.869 200.69 29.1365 200.761 28.4105V13.0967C200.94 13.0517 201.202 12.9965 201.548 12.9309C201.92 12.8612 202.298 12.8273 202.677 12.8298C203.284 12.782 203.89 12.9341 204.401 13.2625C204.605 13.4593 204.76 13.6999 204.856 13.9658C204.952 14.2318 204.985 14.516 204.953 14.7967V17.5644H209.875C210.005 17.7848 210.107 18.0208 210.177 18.2669C210.268 18.5694 210.313 18.8839 210.311 19.1997C210.331 19.4265 210.305 19.6549 210.236 19.8718C210.167 20.0888 210.056 20.2901 209.909 20.4642C209.767 20.5999 209.599 20.7053 209.414 20.7742C209.23 20.843 209.034 20.8738 208.837 20.8646H204.953L204.957 28.145ZM228.931 25.144C228.949 26.3306 228.75 27.5106 228.346 28.6269C227.984 29.6148 227.419 30.517 226.689 31.2766C225.962 32.019 225.081 32.5944 224.107 32.9625C223.025 33.3654 221.876 33.5632 220.72 33.5455C219.564 33.5632 218.415 33.3654 217.333 32.9625C216.362 32.5971 215.482 32.0289 214.751 31.2962C214.018 30.5448 213.454 29.6475 213.094 28.6634C212.688 27.5373 212.49 26.3474 212.508 25.151C212.491 23.9644 212.689 22.7845 213.094 21.6682C213.458 20.678 214.033 19.7779 214.779 19.0297C215.517 18.2996 216.401 17.7319 217.374 17.3635C218.444 16.9631 219.58 16.7654 220.723 16.7804C221.866 16.7654 223.002 16.9631 224.072 17.3635C225.048 17.7346 225.932 18.3095 226.666 19.0494C227.406 19.8051 227.976 20.7082 228.34 21.6991C228.744 22.8045 228.943 23.9736 228.927 25.1496L228.931 25.144ZM220.728 20.1101C220.183 20.0877 219.64 20.1955 219.145 20.4245C218.65 20.6535 218.217 20.9971 217.883 21.4266C217.129 22.5146 216.764 23.8232 216.846 25.1426C216.759 26.4655 217.119 27.7793 217.867 28.8755C218.206 29.3039 218.642 29.6455 219.14 29.8716C219.638 30.0977 220.183 30.2018 220.73 30.1751C221.278 30.2012 221.825 30.0952 222.323 29.866C222.821 29.6368 223.257 29.2912 223.592 28.8587C224.336 27.7667 224.696 26.4597 224.614 25.1426C224.696 23.8232 224.331 22.5146 223.577 21.4266C223.243 20.9967 222.811 20.6524 222.317 20.4224C221.823 20.1924 221.281 20.0834 220.735 20.1045L220.728 20.1101ZM236.633 33.0117C236.433 33.0566 236.165 33.1119 235.83 33.1774C235.455 33.2482 235.073 33.2821 234.691 33.2786C234.079 33.324 233.468 33.1717 232.95 32.8445C232.743 32.6501 232.584 32.4104 232.486 32.1444C232.388 31.8783 232.353 31.5933 232.385 31.3117V20.7466C232.368 20.2286 232.509 19.7175 232.787 19.2798C233.095 18.8434 233.495 18.4794 233.959 18.2135C234.758 17.7477 235.621 17.3998 236.521 17.1808C237.598 16.9064 238.707 16.7718 239.819 16.7804C241.94 16.7804 243 17.4361 243 18.7473C243.002 19.0484 242.951 19.3475 242.849 19.6311C242.768 19.8695 242.661 20.0988 242.532 20.3153C241.903 20.192 241.264 20.1345 240.623 20.1439C239.878 20.1395 239.136 20.2292 238.413 20.4108C237.797 20.5611 237.201 20.7862 236.639 21.0809L236.633 33.0117Z" fill="white"/>
<defs>
<linearGradient id="paint0_linear_435_696" x1="-4.18172" y1="-0.773199" x2="30.9199" y2="31.2139" gradientUnits="userSpaceOnUse">
<stop stop-color="white" stop-opacity="0.4"/>
<stop offset="0.874" stop-color="#6F77F4" stop-opacity="0"/>
<stop offset="1" stop-color="#D59BF6" stop-opacity="0"/>
</linearGradient>
</defs>
</svg>
